# xmcd
#
# Track frame offsets:
#	150
#	15375
#	33075
#	47475
#	63675
#	78375
#	93075
#	108225
#	122925
#	138825
#	153750
#	168675
#	181200
#	197250
#	210975
#	228450
#
# Disc length: 3191 seconds
#
# Revision: 1
# Processed by: cddbd v1.5.2PL0 Copyright (c) Steve Scherf et al.
# Submitted via: audiograbber 1.83.01
#
DISCID=be0c7510
DTITLE=Various Artist - CDX 51 February 1993
DYEAR=1993
DGENRE=Country
TTITLE0=Dwight Yoakam - Ain't That Lonely Yet
TTITLE1=Charlie Daniels - America, I Believe In You
TTITLE2=Mark Collie - Born To Love You
TTITLE3=Hank Williams Jr. - Everything Comes Down To Money And Love
TTITLE4=Suzy Bogguss - Heartache
TTITLE5=Toy Caldwell - I Hear The South Calling Me
TTITLE6=Gene Watson - In Other Words
TTITLE7=Ricky Van Shelton - Just As I Am
TTITLE8=Dude Mowrey - Maybe You Were The One
TTITLE9=Kenny Rogers - Missing You
TTITLE10=Diamond Rio - Oh Me, Oh My, Sweet Baby
TTITLE11=George Jones - Wrong's What I Do Best
TTITLE12=Toby Keith - Should've Been A Cowboy
TTITLE13=Shania Twain - What Made You Say That
TTITLE14=John Brannen - Moonlight and Magnolias
TTITLE15=Ralph Stanley, Tom T. Hall and Judy Marshall - The Water Lilly
EXTD=
EXTT0=
EXTT1=
EXTT2=
EXTT3=
EXTT4=
EXTT5=
EXTT6=
EXTT7=
EXTT8=
EXTT9=
EXTT10=
EXTT11=
EXTT12=
EXTT13=
EXTT14=
EXTT15=
PLAYORDER=
